<svg width="276" height="53" viewBox="0 0 276 53" fill="none" xmlns="http://www.w3.org/2000/svg">
<path d="M0.589355 1.55171H10.3C16.5682 1.55171 20.8019 1.83853 23.0008 2.41218C25.2204 2.98604 26.9057 3.92856 28.0564 5.23995C29.2074 6.55133 29.9267 8.01631 30.2144 9.63509C30.502 11.2333 30.646 14.3888 30.646 19.1016V36.5287C30.646 40.9956 30.4303 43.9877 29.9987 45.5026C29.5876 46.9986 28.858 48.1778 27.8098 49.0381C26.7618 49.8774 25.4671 50.4733 23.9256 50.8216C22.3842 51.1489 20.0619 51.3125 16.9587 51.3125H0.589355V1.55171ZM13.5676 10.0654V42.798C15.4378 42.798 16.5887 42.4308 17.0203 41.6922C17.4519 40.9348 17.6677 38.8953 17.6677 35.5759V16.2432C17.6677 13.9893 17.5957 12.5447 17.4519 11.9095C17.308 11.2744 16.9792 10.8132 16.4654 10.5264C15.9516 10.219 14.9857 10.0654 13.5676 10.0654ZM65.1417 30.689C65.1417 35.6886 65.0184 39.2335 64.7718 41.3229C64.5458 43.3939 63.8058 45.2886 62.5522 47.0091C61.3192 48.7317 59.6442 50.0515 57.5273 50.9747C55.4106 51.8958 52.9444 52.3575 50.1288 52.3575C47.4572 52.3575 45.0526 51.9273 42.9153 51.0671C40.7984 50.1858 39.0927 48.8744 37.7978 47.1329C36.5032 45.3914 35.7325 43.4946 35.4859 41.4467C35.2392 39.3974 35.1159 35.8116 35.1159 30.689V22.1753C35.1159 17.1756 35.2289 13.641 35.4551 11.5715C35.7016 9.48149 36.4415 7.57589 37.6745 5.85472C38.9282 4.13335 40.6134 2.81189 42.7303 1.88972C44.847 0.967769 47.3132 0.506592 50.1288 0.506592C52.8005 0.506592 55.1947 0.947213 57.3116 1.82825C59.4489 2.68894 61.1649 3.99004 62.4598 5.73177C63.7545 7.47328 64.5251 9.36881 64.7718 11.4177C65.0184 13.4668 65.1417 17.0527 65.1417 22.1753V30.689ZM52.1634 14.3376C52.1634 12.0222 52.0298 10.547 51.7627 9.91183C51.5161 9.25614 50.9921 8.92818 50.1905 8.92818C49.5122 8.92818 48.9882 9.19467 48.6182 9.7274C48.2689 10.2396 48.0942 11.7763 48.0942 14.3376V37.5736C48.0942 40.4629 48.2072 42.2462 48.4332 42.9218C48.6799 43.5974 49.2348 43.9352 50.0981 43.9352C50.9818 43.9352 51.5468 43.5471 51.7935 42.7686C52.0401 41.9902 52.1634 40.1351 52.1634 37.205V14.3376ZM100.316 23.251H87.3375V14.5835C87.3375 12.0631 87.1935 10.4958 86.9058 9.88099C86.6386 9.24586 86.0325 8.92818 85.0869 8.92818C84.0183 8.92818 83.3402 9.30733 83.0523 10.0654C82.7646 10.8235 82.6209 12.4628 82.6209 14.983V38.0963C82.6209 40.5141 82.7646 42.0909 83.0523 42.8295C83.3402 43.568 83.9876 43.9352 84.9945 43.9352C85.9605 43.9352 86.5872 43.568 86.8749 42.8295C87.1832 42.0909 87.3375 40.3605 87.3375 37.6351V31.3959H100.316V33.3323C100.316 38.4752 99.9458 42.1224 99.2059 44.2751C98.4866 46.4258 96.8733 48.31 94.366 49.9298C91.8793 51.5475 88.8068 52.3575 85.1486 52.3575C81.3466 52.3575 78.2125 51.6713 75.7464 50.2991C73.2802 48.9248 71.6463 47.0301 70.8449 44.6129C70.0433 42.1748 69.6426 38.5164 69.6426 33.6395V19.1016C69.6426 15.516 69.7659 12.8317 70.0126 11.0489C70.259 9.24586 70.9886 7.51441 72.2012 5.85472C73.4342 4.19483 75.1298 2.89373 77.2877 1.95121C79.4661 0.988131 81.9633 0.506592 84.7788 0.506592C88.6014 0.506592 91.756 1.24431 94.2427 2.71957C96.7295 4.19482 98.3632 6.03916 99.1442 8.25194C99.9252 10.4446 100.316 13.8663 100.316 18.5177V23.251ZM134.472 1.55171V34.8076C134.472 38.5778 134.349 41.2306 134.103 42.7686C133.856 44.2835 133.126 45.8509 131.914 47.4707C130.701 49.0695 129.098 50.2886 127.105 51.1279C125.132 51.9483 122.799 52.3575 120.107 52.3575C117.127 52.3575 114.496 51.8665 112.215 50.8824C109.934 49.8983 108.228 48.6184 107.098 47.0406C105.967 45.4627 105.299 43.803 105.094 42.0615C104.888 40.299 104.786 36.6108 104.786 30.9964V1.55171H117.764V38.8647C117.764 41.0376 117.877 42.4308 118.103 43.0456C118.35 43.6394 118.833 43.9352 119.552 43.9352C120.374 43.9352 120.898 43.6079 121.124 42.9533C121.371 42.2755 121.494 40.6985 121.494 38.2193V1.55171H134.472ZM180.498 1.55171V51.3125H167.519V30.4124H163.635V51.3125H150.657V1.55171H163.635V19.3475H167.519V1.55171H180.498ZM185.738 1.55171H207.379V11.51H198.717V20.9457H206.824V30.4124H198.717V41.3544H208.242V51.3125H185.738V1.55171ZM212.002 1.55171H221.19C227.314 1.55171 231.456 1.78734 233.613 2.2586C235.791 2.72986 237.559 3.93885 238.916 5.88536C240.293 7.81152 240.981 10.8953 240.981 15.1368C240.981 19.0095 240.497 21.6117 239.533 22.9436C238.567 24.2756 236.664 25.0746 233.83 25.3411C236.397 25.9762 238.125 26.8266 239.007 27.8921C239.891 28.9575 240.436 29.9412 240.642 30.8426C240.867 31.7238 240.981 34.1724 240.981 38.1884V51.3125H228.926V34.7767C228.926 32.113 228.712 30.4636 228.28 29.8283C227.87 29.1932 226.769 28.8755 224.98 28.8755V51.3125H212.002V1.55171ZM224.98 10.0654V21.1301C226.441 21.1301 227.457 20.9356 228.034 20.5462C228.63 20.1364 228.926 18.8353 228.926 16.6429V13.9075C228.926 12.3296 228.64 11.2948 228.063 10.8031C227.51 10.3113 226.481 10.0654 224.98 10.0654ZM275.692 30.689C275.692 35.6886 275.57 39.2335 275.322 41.3229C275.096 43.3939 274.356 45.2886 273.104 47.0091C271.87 48.7317 270.195 50.0515 268.078 50.9747C265.961 51.8958 263.494 52.3575 260.679 52.3575C258.008 52.3575 255.603 51.9273 253.467 51.0671C251.35 50.1858 249.643 48.8744 248.349 47.1329C247.054 45.3914 246.284 43.4946 246.036 41.4467C245.789 39.3974 245.667 35.8116 245.667 30.689V22.1753C245.667 17.1756 245.779 13.641 246.006 11.5715C246.252 9.48149 246.991 7.57589 248.224 5.85472C249.479 4.13335 251.164 2.81189 253.281 1.88972C255.399 0.967769 257.863 0.506592 260.679 0.506592C263.351 0.506592 265.746 0.947213 267.861 1.82825C269.999 2.68894 271.715 3.99004 273.011 5.73177C274.305 7.47328 275.075 9.36881 275.322 11.4177C275.57 13.4668 275.692 17.0527 275.692 22.1753V30.689ZM262.714 14.3376C262.714 12.0222 262.581 10.547 262.314 9.91183C262.068 9.25614 261.541 8.92818 260.742 8.92818C260.062 8.92818 259.538 9.19467 259.17 9.7274C258.82 10.2396 258.646 11.7763 258.646 14.3376V37.5736C258.646 40.4629 258.757 42.2462 258.985 42.9218C259.231 43.5974 259.786 43.9352 260.649 43.9352C261.533 43.9352 262.097 43.5471 262.343 42.7686C262.592 41.9902 262.714 40.1351 262.714 37.205V14.3376Z" fill="#CC462F"/>
</svg>
