<svg width="282" height="235" viewBox="0 0 282 235" fill="none" xmlns="http://www.w3.org/2000/svg">
<path d="M141 2.09814L75.7612 37.7678V111.205L141 146.875L206.239 111.205L174.672 94.4196L141 113.303L105.224 94.4196V54.5535L141 35.6696V2.09814Z" fill="#FF573B"/>
<g filter="url(#filter0_d_341_2)">
<path d="M141 2.09814L75.7612 37.7678V111.205L141 146.875L206.239 111.205L174.672 94.4196L141 113.303L105.224 94.4196V54.5535L141 35.6696V2.09814Z" fill="black" fill-opacity="0.2" shape-rendering="crispEdges"/>
</g>
<path d="M174.672 94.4196L206.239 111.205V38.8169L141 2.09814V35.6696L174.672 54.5535V94.4196Z" fill="#FF573B"/>
<path d="M174.672 94.4196L206.239 111.205V38.8169L141 2.09814V35.6696L174.672 54.5535V94.4196Z" fill="#E3E3E3"/>
<path d="M141 2.09814L75.7612 37.7678V111.205L141 146.875L206.239 111.205M141 2.09814V35.6696M141 2.09814L206.239 38.8169V111.205M206.239 111.205L174.672 94.4196M141 35.6696L105.224 54.5535V94.4196L141 113.303L174.672 94.4196M141 35.6696L174.672 54.5535V94.4196" stroke="black"/>
<path d="M2.5896 170.552H12.3002C18.5684 170.552 22.8021 170.839 25.0011 171.412C27.2207 171.986 28.9059 172.929 30.0567 174.24C31.2076 175.551 31.9269 177.016 32.2146 178.635C32.5023 180.233 32.6462 183.389 32.6462 188.102V205.529C32.6462 209.996 32.4305 212.988 31.9989 214.503C31.5879 215.999 30.8583 217.178 29.81 218.038C28.762 218.877 27.4673 219.473 25.9258 219.822C24.3845 220.149 22.0622 220.313 18.9589 220.313H2.5896V170.552ZM15.5679 179.065V211.798C17.4381 211.798 18.589 211.431 19.0206 210.692C19.4521 209.935 19.6679 207.895 19.6679 204.576V185.243C19.6679 182.989 19.596 181.545 19.4521 180.91C19.3083 180.274 18.9794 179.813 18.4657 179.526C17.9519 179.219 16.986 179.065 15.5679 179.065ZM67.142 199.689C67.142 204.689 67.0187 208.234 66.772 210.323C66.546 212.394 65.8061 214.289 64.5524 216.009C63.3194 217.732 61.6445 219.052 59.5276 219.975C57.4109 220.896 54.9446 221.357 52.1291 221.357C49.4574 221.357 47.0529 220.927 44.9155 220.067C42.7987 219.186 41.093 217.874 39.7981 216.133C38.5034 214.391 37.7328 212.495 37.4861 210.447C37.2395 208.397 37.1161 204.812 37.1161 199.689V191.175C37.1161 186.176 37.2292 182.641 37.4554 180.572C37.7018 178.481 38.4418 176.576 39.6748 174.855C40.9284 173.133 42.6137 171.812 44.7306 170.89C46.8472 169.968 49.3135 169.507 52.1291 169.507C54.8007 169.507 57.195 169.947 59.3119 170.828C61.4492 171.689 63.1652 172.99 64.46 174.732C65.7547 176.473 66.5254 178.369 66.772 180.418C67.0187 182.467 67.142 186.053 67.142 191.175V199.689ZM54.1637 183.338C54.1637 181.022 54.03 179.547 53.763 178.912C53.5163 178.256 52.9923 177.928 52.1907 177.928C51.5125 177.928 50.9884 178.195 50.6185 178.727C50.2691 179.24 50.0945 180.776 50.0945 183.338V206.574C50.0945 209.463 50.2075 211.246 50.4335 211.922C50.6801 212.597 51.2351 212.935 52.0983 212.935C52.982 212.935 53.5471 212.547 53.7937 211.769C54.0404 210.99 54.1637 209.135 54.1637 206.205V183.338ZM102.316 192.251H89.3377V183.584C89.3377 181.063 89.1938 179.496 88.9061 178.881C88.6388 178.246 88.0327 177.928 87.0872 177.928C86.0185 177.928 85.3405 178.307 85.0526 179.065C84.7649 179.824 84.6211 181.463 84.6211 183.983V207.096C84.6211 209.514 84.7649 211.091 85.0526 211.829C85.3405 212.568 85.9878 212.935 86.9948 212.935C87.9607 212.935 88.5875 212.568 88.8751 211.829C89.1834 211.091 89.3377 209.36 89.3377 206.635V200.396H102.316V202.332C102.316 207.475 101.946 211.122 101.206 213.275C100.487 215.426 98.8735 217.31 96.3662 218.93C93.8796 220.548 90.8071 221.357 87.1488 221.357C83.3469 221.357 80.2127 220.671 77.7467 219.299C75.2804 217.925 73.6465 216.03 72.8451 213.613C72.0435 211.175 71.6428 207.516 71.6428 202.639V188.102C71.6428 184.516 71.7662 181.832 72.0128 180.049C72.2592 178.246 72.9889 176.514 74.2015 174.855C75.4345 173.195 77.1301 171.894 79.288 170.951C81.4663 169.988 83.9635 169.507 86.7791 169.507C90.6017 169.507 93.7563 170.244 96.2429 171.72C98.7298 173.195 100.363 175.039 101.144 177.252C101.925 179.445 102.316 182.866 102.316 187.518V192.251ZM136.473 170.552V203.808C136.473 207.578 136.349 210.231 136.103 211.769C135.856 213.284 135.127 214.851 133.914 216.471C132.701 218.07 131.098 219.289 129.105 220.128C127.132 220.948 124.799 221.357 122.107 221.357C119.127 221.357 116.496 220.866 114.215 219.882C111.934 218.898 110.228 217.618 109.098 216.041C107.968 214.463 107.3 212.803 107.094 211.062C106.889 209.299 106.786 205.611 106.786 199.996V170.552H119.764V207.865C119.764 210.038 119.877 211.431 120.103 212.046C120.35 212.639 120.833 212.935 121.552 212.935C122.374 212.935 122.898 212.608 123.124 211.953C123.371 211.276 123.494 209.699 123.494 207.219V170.552H136.473ZM182.498 170.552V220.313H169.52V199.412H165.635V220.313H152.657V170.552H165.635V188.348H169.52V170.552H182.498ZM187.738 170.552H209.379V180.51H200.717V189.946H208.824V199.412H200.717V210.354H210.242V220.313H187.738V170.552ZM214.002 170.552H223.19C229.315 170.552 233.456 170.787 235.613 171.259C237.791 171.73 239.559 172.939 240.916 174.885C242.293 176.812 242.981 179.895 242.981 184.137C242.981 188.009 242.497 190.612 241.533 191.944C240.567 193.276 238.665 194.075 235.83 194.341C238.397 194.976 240.125 195.827 241.007 196.892C241.891 197.958 242.436 198.941 242.642 199.843C242.867 200.724 242.981 203.172 242.981 207.188V220.313H230.927V203.777C230.927 201.113 230.712 199.464 230.28 198.828C229.87 198.193 228.769 197.875 226.981 197.875V220.313H214.002V170.552ZM226.981 179.065V190.13C228.441 190.13 229.458 189.936 230.034 189.546C230.63 189.136 230.927 187.835 230.927 185.643V182.907C230.927 181.33 230.64 180.295 230.064 179.803C229.51 179.311 228.481 179.065 226.981 179.065ZM277.692 199.689C277.692 204.689 277.57 208.234 277.322 210.323C277.097 212.394 276.356 214.289 275.104 216.009C273.871 217.732 272.195 219.052 270.078 219.975C267.961 220.896 265.495 221.357 262.679 221.357C260.008 221.357 257.603 220.927 255.467 220.067C253.35 219.186 251.643 217.874 250.349 216.133C249.055 214.391 248.284 212.495 248.036 210.447C247.79 208.397 247.668 204.812 247.668 199.689V191.175C247.668 186.176 247.779 182.641 248.006 180.572C248.253 178.481 248.991 176.576 250.225 174.855C251.479 173.133 253.165 171.812 255.282 170.89C257.399 169.968 259.863 169.507 262.679 169.507C265.352 169.507 267.746 169.947 269.861 170.828C272 171.689 273.715 172.99 275.011 174.732C276.305 176.473 277.076 178.369 277.322 180.418C277.57 182.467 277.692 186.053 277.692 191.175V199.689ZM264.714 183.338C264.714 181.022 264.581 179.547 264.314 178.912C264.068 178.256 263.542 177.928 262.742 177.928C262.062 177.928 261.538 178.195 261.17 178.727C260.821 179.24 260.646 180.776 260.646 183.338V206.574C260.646 209.463 260.758 211.246 260.985 211.922C261.231 212.597 261.787 212.935 262.649 212.935C263.533 212.935 264.097 212.547 264.344 211.769C264.592 210.99 264.714 209.135 264.714 206.205V183.338Z" fill="#E3E3E3"/>
<defs>
<filter id="filter0_d_341_2" x="71.7612" y="2.09814" width="138.478" height="152.777" filterUnits="userSpaceOnUse" color-interpolation-filters="sRGB">
<feFlood flood-opacity="0" result="BackgroundImageFix"/>
<feColorMatrix in="SourceAlpha" type="matrix" values="0 0 0 0 0 0 0 0 0 0 0 0 0 0 0 0 0 0 127 0" result="hardAlpha"/>
<feOffset dy="4"/>
<feGaussianBlur stdDeviation="2"/>
<feComposite in2="hardAlpha" operator="out"/>
<feColorMatrix type="matrix" values="0 0 0 0 0 0 0 0 0 0 0 0 0 0 0 0 0 0 0.25 0"/>
<feBlend mode="normal" in2="BackgroundImageFix" result="effect1_dropShadow_341_2"/>
<feBlend mode="normal" in="SourceGraphic" in2="effect1_dropShadow_341_2" result="shape"/>
</filter>
</defs>
</svg>
